<svg viewBox="0 0 16 16" xmlns="http://www.w3.org/2000/svg"><g transform="scale(.032)"><path fill="#475569" d="M1041.42 387.36c-33.17 103.71-50.05 209.85-50.05 218.89 0 26.53 58.48 77.78 87.43 77.78 7.23 0 12.05-3.02 12.05-9.05 0-13.87 71.75-120.61 138.08-202.62 -21.71 77.18-29.55 157.99-29.55 184.52 0 22.46 9.93 37.89 21.79 49.68 -53.48 32.5-118.51 23.42-211.09-21.75 -45.41-22.17-79.9-44.44-104.12-68.7 26.66-58.14 71.68-143.47 135.42-228.8Zm279.36 190.51c-10.49 21.49-21 40.54-31.74 57.21 18.12-77.97 54.74-161.22 72.93-196.48 -.23 38.91-14.35 84.21-41.21 139.25Zm-.32-239.55l1.27 1.34c-6.61-3.37-12.65-5.39-17.44-5.39 -3.02 0-5.43.6-7.24 2.41 -24.12 14.47-112.76 103.71-177.88 187.54 33.79-101.93 89.79-217.28 103.18-252.86 42.75 21.52 75.25 43.25 98.08 66.93Zm-208.2-108.25l-.37.4c-49.6 53.94-163.16 184.28-249.91 285.54 -.44-39.52 13.69-85.62 41.14-141.92l-.09.08c57.78-118.57 116.3-162.72 209.21-144.13Z" transform="translate(-862-226)"/></g></svg>